{
    "accessors": {
        "accessor_21": {
            "bufferView": "bufferView_83",
            "byteOffset": 0,
            "byteStride": 0,
            "componentType": 5123,
            "count": 1485,
            "type": "SCALAR"
        },
        "accessor_23": {
            "bufferView": "bufferView_84",
            "byteOffset": 0,
            "byteStride": 12,
            "componentType": 5126,
            "count": 1485,
            "max": [
                2.54,
                1.27,
                1.47379
            ],
            "min": [
                -2.54,
                -2.3247,
                -0.155867
            ],
            "type": "VEC3"
        },
        "accessor_25": {
            "bufferView": "bufferView_84",
            "byteOffset": 17820,
            "byteStride": 12,
            "componentType": 5126,
            "count": 1485,
            "max": [
                1,
                1,
                1
            ],
            "min": [
                -1,
                -1,
                -1
            ],
            "type": "VEC3"
        },
        "accessor_27": {
            "bufferView": "bufferView_84",
            "byteOffset": 35640,
            "byteStride": 8,
            "componentType": 5126,
            "count": 1485,
            "max": [
                200,
                1
            ],
            "min": [
                -199,
                -99
            ],
            "type": "VEC2"
        },
        "accessor_48": {
            "bufferView": "bufferView_83",
            "byteOffset": 3042,
            "byteStride": 0,
            "componentType": 5123,
            "count": 3072,
            "type": "SCALAR"
        },
        "accessor_50": {
            "bufferView": "bufferView_84",
            "byteOffset": 48672,
            "byteStride": 12,
            "componentType": 5126,
            "count": 3072,
            "max": [
                0.682101,
                0.397944,
                0.626762
            ],
            "min": [
                -0.596916,
                -0.397944,
                0
            ],
            "type": "VEC3"
        },
        "accessor_52": {
            "bufferView": "bufferView_84",
            "byteOffset": 85536,
            "byteStride": 12,
            "componentType": 5126,
            "count": 3072,
            "max": [
                0.999598,
                0.999892,
                1
            ],
            "min": [
                -0.997804,
                -0.99985,
                -1
            ],
            "type": "VEC3"
        },
        "accessor_54": {
            "bufferView": "bufferView_84",
            "byteOffset": 122400,
            "byteStride": 8,
            "componentType": 5126,
            "count": 3072,
            "max": [
                49.2196,
                1
            ],
            "min": [
                0,
                -48.2196
            ],
            "type": "VEC2"
        },
        "accessor_75": {
            "bufferView": "bufferView_83",
            "byteOffset": 2970,
            "byteStride": 0,
            "componentType": 5123,
            "count": 36,
            "type": "SCALAR"
        },
        "accessor_77": {
            "bufferView": "bufferView_84",
            "byteOffset": 47520,
            "byteStride": 12,
            "componentType": 5126,
            "count": 36,
            "max": [
                0.516152,
                0.0661481,
                0
            ],
            "min": [
                -0.516152,
                -0.0661481,
                -0.249142
            ],
            "type": "VEC3"
        },
        "accessor_79": {
            "bufferView": "bufferView_84",
            "byteOffset": 47952,
            "byteStride": 12,
            "componentType": 5126,
            "count": 36,
            "max": [
                0.57735,
                0.57735,
                0.57735
            ],
            "min": [
                -0.57735,
                -0.57735,
                -0.57735
            ],
            "type": "VEC3"
        },
        "accessor_81": {
            "bufferView": "bufferView_84",
            "byteOffset": 48384,
            "byteStride": 8,
            "componentType": 5126,
            "count": 36,
            "max": [
                40.6419,
                10.8087
            ],
            "min": [
                -39.6419,
                -4.20851
            ],
            "type": "VEC2"
        }
    },
    "animations": {},
    "asset": {
        "generator": "collada2gltf@cf6371beb0bdc18ba603378d5e40c966da53d385",
        "premultipliedAlpha": true,
        "profile": {
            "api": "WebGL",
            "version": "1.0.2"
        },
        "version": "1.0"
    },
    "bufferViews": {
        "bufferView_83": {
            "buffer": "\\my3Dmax\\mydae3",
            "byteLength": 9188,
            "byteOffset": 0,
            "target": 34963
        },
        "bufferView_84": {
            "buffer": "\\my3Dmax\\mydae3",
            "byteLength": 146976,
            "byteOffset": 9188,
            "target": 34962
        }
    },
    "buffers": {
        "\\my3Dmax\\mydae3": {
            "byteLength": 156164,
            "type": "arraybuffer",
            "uri": "data:application/octet-stream;base64,"
        }
    },
    "materials": {
        "__glTF__defaultMaterial0": {
            "name": "__glTF__defaultMaterial0",
            "technique": "technique0",
            "values": {
                "diffuse": [
                    1,
                    1,
                    1,
                    1
                ]
            }
        }
    },
    "meshes": {
        "Box001-lib": {
            "name": "Box001Mesh",
            "primitives": [
                {
                    "attributes": {
                        "NORMAL": "accessor_25",
                        "POSITION": "accessor_23",
                        "TEXCOORD_0": "accessor_27"
                    },
                    "indices": "accessor_21",
                    "material": "__glTF__defaultMaterial0",
                    "mode": 4
                }
            ]
        },
        "Box003-lib": {
            "name": "Box003Mesh",
            "primitives": [
                {
                    "attributes": {
                        "NORMAL": "accessor_79",
                        "POSITION": "accessor_77",
                        "TEXCOORD_0": "accessor_81"
                    },
                    "indices": "accessor_75",
                    "material": "__glTF__defaultMaterial0",
                    "mode": 4
                }
            ]
        },
        "Teapot001-lib": {
            "name": "Teapot001Mesh",
            "primitives": [
                {
                    "attributes": {
                        "NORMAL": "accessor_52",
                        "POSITION": "accessor_50",
                        "TEXCOORD_0": "accessor_54"
                    },
                    "indices": "accessor_48",
                    "material": "__glTF__defaultMaterial0",
                    "mode": 4
                }
            ]
        }
    },
    "nodes": {
        "Box001": {
            "children": [],
            "matrix": [
                0.999946,
                0.010401,
                0,
                0,
                -0.010401,
                0.999946,
                0,
                0,
                0,
                0,
                1,
                0,
                0,
                0.528565,
                -0.767845,
                1
            ],
            "meshes": [
                "Box001-lib"
            ],
            "name": "Box001"
        },
        "Box003": {
            "children": [],
            "matrix": [
                1,
                0,
                0,
                0,
                0,
                1,
                0,
                0,
                0,
                0,
                1,
                0,
                1.69795,
                -0.616043,
                0.923712,
                1
            ],
            "meshes": [
                "Box003-lib"
            ],
            "name": "Box003"
        },
        "Teapot001": {
            "children": [],
            "matrix": [
                0.996254,
                0.085216,
                -0.014718,
                0,
                -0.08627,
                0.991156,
                -0.100836,
                0,
                0.005995,
                0.101728,
                0.994794,
                0,
                -1.47428,
                -1.44871,
                -0.0914317,
                1
            ],
            "meshes": [
                "Teapot001-lib"
            ],
            "name": "Teapot001"
        },
        "myzu1": {
            "children": [
                "Box001",
                "Teapot001",
                "Box003"
            ],
            "matrix": [
                1,
                0,
                0,
                0,
                0,
                0,
                -1,
                0,
                0,
                1,
                0,
                0,
                -0.869894,
                0.767845,
                0.629361,
                1
            ],
            "name": "myzu1"
        }
    },
    "programs": {
        "program_0": {
            "attributes": [
                "a_normal",
                "a_position"
            ],
            "fragmentShader": "\\my3Dmax\\mydae30FS",
            "vertexShader": "\\my3Dmax\\mydae30VS"
        }
    },
    "scene": "defaultScene",
    "scenes": {
        "defaultScene": {
            "nodes": [
                "myzu1"
            ]
        }
    },
    "shaders": {
        "\\my3Dmax\\mydae30FS": {
            "type": 35632,
            "uri": "data:text/plain;base64,"
        },
        "\\my3Dmax\\mydae30VS": {
            "type": 35633,
            "uri": "data:text/plain;base64,"
        }
    },
    "skins": {},
    "techniques": {
        "technique0": {
            "attributes": {
                "a_normal": "normal",
                "a_position": "position"
            },
            "parameters": {
                "diffuse": {
                    "type": 35666
                },
                "modelViewMatrix": {
                    "semantic": "MODELVIEW",
                    "type": 35676
                },
                "normal": {
                    "semantic": "NORMAL",
                    "type": 35665
                },
                "normalMatrix": {
                    "semantic": "MODELVIEWINVERSETRANSPOSE",
                    "type": 35675
                },
                "position": {
                    "semantic": "POSITION",
                    "type": 35665
                },
                "projectionMatrix": {
                    "semantic": "PROJECTION",
                    "type": 35676
                }
            },
            "program": "program_0",
            "states": {
                "enable": [
                    2929,
                    2884
                ]
            },
            "uniforms": {
                "u_diffuse": "diffuse",
                "u_modelViewMatrix": "modelViewMatrix",
                "u_normalMatrix": "normalMatrix",
                "u_projectionMatrix": "projectionMatrix"
            }
        }
    }
}